# xmcd
#
# Track frame offsets: 
#        150
#        19942
#        42260
#        60800
#        78340
#        94250
#        111892
#        131062
#        152085
#        170015
#        188235
#
# Disc length: 2730 seconds
#
# Revision: 7
# Processed by: cddbd v1.5.2PL0 Copyright (c) Steve Scherf et al.
# Submitted via: ExactAudioCopy v0.99pb5
#
DISCID=8a0aa80b
DTITLE=Echo and The Bunnymen - Flowers
DYEAR=2001
DGENRE=Pop
TTITLE0=King of kings
TTITLE1=Supermellowman
TTITLE2=Hide and Seek
TTITLE3=Make me shine
TTITLE4=It's alright
TTITLE5=Buried alive
TTITLE6=Flowers
TTITLE7=Everybody knows
TTITLE8=Life goes on
TTITLE9=An etnernity turns
TTITLE10=Burn for me
EXTD=YEAR: 2001 ID3G:  12
EXTT0=
EXTT1=
EXTT2=
EXTT3=
EXTT4=
EXTT5=
EXTT6=
EXTT7=
EXTT8=
EXTT9=
EXTT10=
PLAYORDER=
